<svg xmlns="http://www.w3.org/2000/svg" viewBox="0 0 720 480" role="img" aria-labelledby="title desc">
  <title id="title">Demo day presentation</title>
  <desc id="desc">Illustration of a project demo presentation with dashboard screens</desc>
  <defs>
    <linearGradient id="bg" x1="0" y1="0" x2="1" y2="1">
      <stop offset="0" stop-color="#fdeefc"/>
      <stop offset=".52" stop-color="#e3c7ff"/>
      <stop offset="1" stop-color="#f7d98c"/>
    </linearGradient>
    <linearGradient id="accent" x1="0" y1="0" x2="1" y2="1">
      <stop offset="0" stop-color="#4dd0e1"/>
      <stop offset="1" stop-color="#7c4dff"/>
    </linearGradient>
  </defs>
  <rect width="720" height="480" rx="42" fill="url(#bg)"/>
  <rect x="98" y="84" width="524" height="256" rx="28" fill="#fff" opacity=".8"/>
  <rect x="140" y="124" width="228" height="154" rx="18" fill="#1a1530"/>
  <rect x="166" y="154" width="176" height="20" rx="10" fill="url(#accent)"/>
  <rect x="166" y="198" width="120" height="12" rx="6" fill="#c9c6d6"/>
  <rect x="166" y="226" width="146" height="12" rx="6" fill="#c9c6d6"/>
  <rect x="410" y="124" width="168" height="154" rx="18" fill="#f8f3fc"/>
  <circle cx="494" cy="201" r="54" fill="none" stroke="#29d6e0" stroke-width="18"/>
  <path d="M494 147a54 54 0 0154 54" fill="none" stroke="#b13cf0" stroke-width="18" stroke-linecap="round"/>
  <circle cx="344" cy="356" r="34" fill="#6a5cf5"/>
  <path d="M286 424c10-59 42-92 66-92s56 33 66 92z" fill="#2f2443"/>
  <circle cx="522" cy="358" r="30" fill="#29d6e0"/>
  <path d="M472 424c8-51 35-79 57-79s49 28 57 79z" fill="#3a2a5c"/>
  <path d="M170 338h150" stroke="#1a1530" stroke-width="12" stroke-linecap="round" opacity=".2"/>
</svg>
